# xmcd CD database file
#
# Track frame offsets:
#	150
#	12075
#	26949
#	43372
#	58638
#	67841
#	79200
#	104716
#	119553
#	133957
#	145237
#	158777
#	194620
#	209087
#	221895
#	250104
#	271462
#	290465
#
# Disc length: 4053 seconds
#
# Revision: 1
# Processed by: cddbd v1.5.2PL0 Copyright (c) Steve Scherf et al.
# Submitted via: CDex 1.50
#
DISCID=2b0fd312
DTITLE=Various Artist - Jazz After Hours With...
DYEAR=1900
DGENRE=Jazz
TTITLE0=Carmen McRae - Love Is A Night Time Thing
TTITLE1=Lena Horne - A Message To Michael
TTITLE2=Dinah Washington - If I Never Get To Heaven
TTITLE3=Louis Armstrong - Mack The Knife
TTITLE4=Peggy Lee - Let's Do It (Let's Fall In Love)
TTITLE5=Ella Fitgerald - It's Only A Paper Moon
TTITLE6=Mel Torme - Bye Bye Blackbird
TTITLE7=Nat King Cole - Frim Fram Sauce
TTITLE8=Sarah Vaughan - It Might As Well Be Spring
TTITLE9=Billie Holliday - He's Funny That Way
TTITLE10=Art Tatum - Wrap Your Troubles In Dreams
TTITLE11=Bob Boorkmeyer - Someday My Prince Will Come
TTITLE12=Charlie Parker Quintet - Bird Of Paradise
TTITLE13=Dizzy Gillespie Quintet - Dizzy Atmosphere
TTITLE14=Miles Davis - Round Midnight
TTITLE15=Pete Fountain - Up The Lazy River
TTITLE16=Slide Hampton - The Cloister Suite Part 2
TTITLE17=Thelonious Monk - Willow Weep For Me
EXTD=
EXTT0=
EXTT1=
EXTT2=
EXTT3=
EXTT4=
EXTT5=
EXTT6=
EXTT7=
EXTT8=
EXTT9=
EXTT10=
EXTT11=
EXTT12=
EXTT13=
EXTT14=
EXTT15=
EXTT16=
EXTT17=
PLAYORDER=
